<svg width="24" height="24" viewBox="0 0 24 24" fill="none" xmlns="http://www.w3.org/2000/svg">
<g id="Frame">
<path id="Vector" d="M9.70404 16.294C9.79689 16.3869 9.87052 16.4972 9.92074 16.6186C9.97097 16.7399 9.99679 16.87 9.99675 17.0013C9.9967 17.1327 9.97078 17.2627 9.92047 17.3841C9.87017 17.5054 9.79645 17.6156 9.70354 17.7085C9.61063 17.8013 9.50034 17.875 9.37898 17.9252C9.25761 17.9754 9.12754 18.0012 8.99619 18.0012C8.86484 18.0011 8.73479 17.9752 8.61346 17.9249C8.49212 17.8746 8.38189 17.8009 8.28904 17.708L3.29204 12.704C3.10488 12.5165 2.99976 12.2624 2.99976 11.9975C2.99976 11.7326 3.10488 11.4785 3.29204 11.291L8.29004 6.29299C8.47755 6.10535 8.73192 5.99988 8.99719 5.99979C9.26246 5.99969 9.5169 6.10498 9.70454 6.29249C9.89218 6.48 9.99765 6.73437 9.99775 6.99964C9.99784 7.26491 9.89255 7.51935 9.70504 7.70699L6.41004 11H13C15.0785 11 17.0753 11.8089 18.5677 13.2555C20.0602 14.702 20.9311 16.6726 20.996 18.75L21 19C21 19.2652 20.8947 19.5196 20.7071 19.7071C20.5196 19.8946 20.2653 20 20 20C19.7348 20 19.4805 19.8946 19.2929 19.7071C19.1054 19.5196 19 19.2652 19 19C19.0001 17.4476 18.3985 15.9556 17.3216 14.8375C16.2447 13.7194 14.7763 13.0622 13.225 13.004L13 13H6.41404L9.70404 16.294Z" fill="#7244F5"/>
</g>
</svg>
