<svg width="48" height="48" viewBox="0 0 48 48" fill="none" xmlns="http://www.w3.org/2000/svg">
<g id="Frame">
<path id="Vector" d="M16.586 8.586C16.2111 8.96106 16.0005 9.46967 16.0005 10C16.0005 10.5303 16.2111 11.0389 16.586 11.414L29.172 24L16.586 36.586C16.395 36.7705 16.2427 36.9912 16.1378 37.2352C16.033 37.4792 15.9778 37.7416 15.9755 38.0072C15.9732 38.2728 16.0238 38.5361 16.1244 38.7819C16.225 39.0277 16.3735 39.251 16.5613 39.4388C16.749 39.6266 16.9723 39.7751 17.2181 39.8756C17.4639 39.9762 17.7273 40.0268 17.9928 40.0245C18.2584 40.0222 18.5208 39.967 18.7648 39.8622C19.0089 39.7574 19.2295 39.605 19.414 39.414L33.414 25.414C33.789 25.0389 33.9996 24.5303 33.9996 24C33.9996 23.4697 33.789 22.9611 33.414 22.586L19.414 8.586C19.039 8.21106 18.5304 8.00043 18 8.00043C17.4697 8.00043 16.9611 8.21106 16.586 8.586Z" fill="#7244F5"/>
</g>
</svg>
